PathFileType	4	(X/Y/Z)	C:\Users\WrightLab\Desktop\Jo\P2_Trial28.trc
DataRate	CameraRate	NumFrames	NumMarkers	Units	OrigDataRate	OrigDataStartFrame	OrigNumFrames
100.00	100.00	       13	19	mm	100.00	296	       472
Frame#	Time	Headset_Front			Headset_Back			Headset_Left			Headset_Right			Left_Shoulder			Right_Shoulder			Sternum			C7			Left Elbow			Right Elbow			Left Wrist			Right Wrist			Left ASIS			Right ASIS			S2			Left Knee			Right Knee			Left Ankle			Right Ankle			
		X1	Y1	Z1	X2	Y2	Z2	X3	Y3	Z3	X4	Y4	Z4	X5	Y5	Z5	X6	Y6	Z6	X7	Y7	Z7	X8	Y8	Z8	X9	Y9	Z9	X10	Y10	Z10	X11	Y11	Z11	X12	Y12	Z12	X13	Y13	Z13	X14	Y14	Z14	X15	Y15	Z15	X16	Y16	Z16	X17	Y17	Z17	X18	Y18	Z18	X19	Y19	Z19	

296	2.950	17.55077	1435.85132	1265.51941	0.76231	1693.45569	1097.84033				-92.71846	1532.55298	1228.66479	119.43948	1462.48987	989.11737	-184.49832	1444.98181	1091.29199	-6.62180	1337.09497	1106.49646	-75.37720	1445.91907	938.45251	278.77756	1144.29565	985.39423	-302.26538	1129.82629	1015.28345	361.33966	917.25098	1006.07312	-350.41345	878.36890	1022.44006	72.98416	1047.50256	1091.69531	-56.21662	1027.98706	1134.82458	-68.91219	960.08185	862.57220	133.44150	487.58823	886.70447	-83.44796	562.49066	1145.01477	68.57290	288.73871	651.67358	36.85510	145.08765	1167.82202	
297	2.960	20.05964	1438.79309	1275.54529	4.10269	1695.40759	1107.64038				-90.22470	1535.33679	1238.91748	122.58258	1463.87817	999.76678	-182.29025	1447.43604	1101.17029	-4.21040	1338.95068	1117.26746	-71.36465	1446.78650	951.02759	283.26273	1145.43713	996.76642	-299.48007	1131.71326	1025.75928	361.07565	914.81836	1013.24066	-346.76477	879.62604	1038.62183	75.51299	1049.78955	1104.96228	-54.06563	1029.88489	1146.17249	-65.04308	961.78394	873.76117	142.43604	490.14468	910.16766	-84.06145	562.00684	1150.39490	75.90767	295.48868	674.37213	36.56895	144.18332	1168.25476	
298	2.970	22.04488	1441.97290	1286.78821	6.49791	1697.64819	1117.23584				-87.79350	1538.36731	1249.20703	125.75648	1465.55750	1009.43079	-179.40013	1449.93640	1110.78210	-2.09371	1341.34778	1127.80945	-68.53172	1448.69128	961.70557	284.98090	1145.20691	1007.64697	-296.22610	1132.83984	1040.41248	359.93622	912.67700	1019.03925	-342.86847	881.43793	1055.37292	77.92036	1052.01367	1115.57153	-52.71635	1032.04395	1156.97375	-61.81924	963.85760	884.53729	151.54375	491.28787	935.40967	-84.64095	561.63257	1155.57727	84.07063	300.95755	698.58856	35.48507	143.72258	1168.76624	
299	2.980	24.24156	1445.58228	1298.60498	8.61627	1700.01697	1126.57373				-85.50011	1541.20105	1259.50964	129.17336	1467.13940	1021.22290	-177.17033	1452.21594	1121.12378	0.06172	1343.69189	1138.30078	-65.55527	1451.11987	972.07800	286.78986	1145.23083	1018.12012	-292.99991	1134.26831	1053.13928	360.53220	911.31873	1024.56787	-339.02069	882.84686	1072.92554	79.94487	1054.52771	1128.54785	-51.25349	1034.69910	1167.44910	-57.68943	966.24048	895.03625	161.20448	491.73535	960.76544	-85.22074	562.25360	1160.24280	92.76921	305.93951	723.22760	33.74129	143.54539	1169.49963	
300	2.990	26.50354	1448.91821	1309.15735	10.88887	1702.23962	1135.76050				-83.62467	1544.43909	1269.71741	131.84941	1468.73108	1031.86096	-174.15746	1454.78088	1131.14392	1.81171	1345.59399	1149.16492	-62.61549	1453.28369	982.26880	287.82794	1145.29285	1028.08105	-289.73526	1136.09741	1066.88330	359.06793	909.95782	1029.53418	-335.33603	885.21973	1090.69727	81.38132	1057.47485	1140.31128	-50.35527	1037.31604	1178.70422	-53.66972	968.65094	905.41931	171.78401	492.46506	986.19031	-86.53188	562.52417	1164.51404	101.13077	308.49384	749.31720	32.89249	143.15126	1169.80115	
301	3.000	28.26518	1452.28064	1320.99329	12.77339	1704.46570	1145.06763				-81.37701	1547.59351	1280.06787	134.53207	1470.72546	1042.97913	-171.45366	1457.14917	1141.15857	3.93044	1347.64392	1159.21838	-60.20132	1455.32617	992.78381	289.01419	1145.59277	1037.69983	-286.69870	1138.35083	1080.99023	358.80472	909.98865	1036.03259	-331.27594	887.63336	1108.60535	82.00660	1059.67017	1151.65161	-48.99690	1040.32397	1188.68579	-49.29084	970.77936	915.77667	182.41911	491.88083	1012.45361	-87.74361	563.10626	1168.31555	109.85107	311.69733	776.06195	31.54123	142.64909	1170.47498	
302	3.010	30.02797	1455.08264	1331.01489	15.34898	1706.36841	1154.42078				-79.24899	1550.39160	1290.26868	137.59398	1472.27148	1053.31458	-168.87325	1459.95288	1151.21301	6.04154	1349.66003	1168.80261	-57.21857	1457.62036	1002.74371	290.41486	1145.63440	1045.79187	-283.18161	1140.14124	1095.25745	357.48343	910.04071	1041.43457	-327.38107	890.07257	1127.22742	82.89569	1062.50623	1163.25159	-48.36277	1043.92102	1198.83777	-44.74551	973.26428	925.32697	193.06972	490.99438	1039.76978	-89.07546	562.30292	1172.38110	119.20689	313.42365	803.16516	29.66269	142.54576	1171.15710	
303	3.020	31.87613	1458.01709	1342.32581	17.22546	1708.53381	1163.86084				-77.51804	1553.12549	1300.41492	140.31914	1474.00781	1064.29419	-166.56325	1462.71558	1161.25415	8.14699	1351.48035	1179.35925	-54.82216	1459.64319	1012.76752	291.79855	1146.49084	1054.39807	-279.66257	1142.34277	1109.72351	356.64633	910.41296	1045.79956	-323.71756	893.01917	1146.23059	83.91102	1064.92822	1175.56738	-48.25434	1046.71338	1210.21899	-40.17034	975.51776	936.09509	203.32558	489.45438	1067.50439	-90.75024	560.65125	1174.22827	128.09319	314.49548	832.01782	27.86152	142.37843	1171.60693	
304	3.030	33.36864	1461.56921	1352.82739	19.11823	1710.71790	1173.38354				-75.67451	1555.36597	1310.23462	143.14699	1475.71033	1074.70264	-163.40683	1465.09607	1171.09265	11.32901	1353.19714	1189.00464	-52.22955	1461.75732	1022.97949	293.14044	1147.34436	1062.12537	-276.69238	1144.18860	1124.82678	355.64737	910.73383	1051.06567	-320.12024	895.80542	1164.94128	86.20095	1068.06042	1188.56787	-47.80051	1049.87292	1220.22095	-35.69991	977.87708	946.09192	213.69698	487.62576	1096.28857	-92.74943	562.25592	1176.88074	137.39772	314.85229	861.42401	26.20269	141.73198	1172.11792	
305	3.040	34.59797	1464.44104	1364.13513	21.05330	1712.61755	1183.01733				-74.52184	1557.89099	1319.96301	145.54245	1477.97009	1085.37744	-161.05228	1467.48267	1181.21399	13.63097	1355.03235	1199.27649	-50.17029	1463.77124	1033.40674	293.98148	1148.02698	1069.71265	-273.87000	1146.29395	1139.70581	355.76318	911.27521	1056.58655	-316.99393	898.22186	1184.88562	86.89531	1070.28687	1199.78564	-47.24750	1052.38171	1230.24670	-30.46813	979.51453	955.73193	222.69279	487.55219	1124.17358	-92.63573	562.07489	1178.89746	146.04303	314.45209	890.12036	24.24220	141.82689	1172.54529	
306	3.050	35.91491	1466.66333	1373.81677	22.50458	1714.70398	1192.78796				-73.75278	1560.15796	1329.70093	148.15135	1479.48047	1096.06836	-158.14999	1469.48083	1191.32007	16.22828	1357.15637	1209.46155	-47.67292	1465.26050	1043.54602	294.69070	1149.08740	1076.51697	-270.54568	1148.30859	1155.03162	354.39325	912.19360	1063.12732	-313.14108	900.84387	1203.70129	88.11014	1071.99463	1212.04614	-46.88345	1054.87610	1240.96057	-25.93166	981.06293	966.31274	230.78149	488.92072	1152.07642	-94.78891	562.79431	1181.48462	155.52019	313.10364	919.99420	22.22755	141.83925	1172.94165	
307	3.060	36.77153	1468.48438	1383.66431	24.72163	1716.50598	1202.58264				-71.95704	1562.02063	1339.22778	150.47925	1481.11792	1106.72009	-156.09134	1471.56287	1201.43982	18.75281	1359.32666	1219.56128	-45.29244	1466.74817	1053.59680	295.44034	1150.07263	1083.25842	-268.08057	1150.29150	1170.51233	353.68573	912.76605	1067.69067	-310.01282	903.66156	1223.27441	89.02405	1073.35046	1223.53491	-45.78033	1056.54785	1250.34033	-21.59449	982.83179	977.31702	238.48293	494.67722	1179.59265	-96.06949	563.09253	1182.84924	164.54834	311.17447	950.76361	19.78789	141.86455	1173.12769	
308	3.070	38.03984	1470.32520	1394.91907	26.54388	1718.17639	1212.56543				-70.60619	1563.46301	1348.90613	152.84314	1482.62329	1116.66577	-153.39755	1473.47424	1211.27917	20.80486	1361.16028	1230.32117	-43.42097	1468.37085	1064.11914	295.89832	1150.60498	1089.72595	-265.42032	1151.79504	1185.99231	353.71509	913.94836	1073.23535	-307.10089	905.94727	1242.88745	89.73805	1074.94653	1234.81030	-44.58580	1058.12378	1260.66382	-17.24123	983.87854	987.61932	246.83685	502.77200	1205.42786	-96.81142	563.75244	1184.85828	173.70821	307.84613	980.22931	15.85824	142.47525	1173.30164	
